<mxfile host="app.diagrams.net" modified="2024-01-11T07:48:03.683Z" agent="Mozilla/5.0 (Macintosh; Intel Mac OS X 10_15_7) AppleWebKit/537.36 (KHTML, like Gecko) Chrome/120.0.0.0 Safari/537.36" etag="wt9Wnf0VroPRHk9TBF7-" version="22.1.18" type="github">
  <diagram name="第 1 页" id="wLxCkMNg8gMWtOEjlbJJ">
    <mxGraphModel dx="1026" dy="650" grid="1" gridSize="10" guides="1" tooltips="1" connect="1" arrows="1" fold="1" page="1" pageScale="1" pageWidth="827" pageHeight="1169" math="0" shadow="0">
      <root>
        <mxCell id="0" />
        <mxCell id="1" parent="0" />
        <mxCell id="WaY7J1_5YlBNvb_G9uSw-1" value="调用者&lt;br&gt;Caller" style="rounded=0;whiteSpace=wrap;html=1;fillColor=#ffe6cc;strokeColor=#d79b00;gradientColor=none;" parent="1" vertex="1">
          <mxGeometry x="50" y="270" width="120" height="60" as="geometry" />
        </mxCell>
        <mxCell id="WaY7J1_5YlBNvb_G9uSw-2" value="" style="rounded=0;whiteSpace=wrap;html=1;fillColor=#dae8fc;strokeColor=#6c8ebf;" parent="1" vertex="1">
          <mxGeometry x="250" y="80" width="560" height="480" as="geometry" />
        </mxCell>
        <mxCell id="WaY7J1_5YlBNvb_G9uSw-3" value="AOP Proxy代理对象" style="text;html=1;strokeColor=none;fillColor=none;align=center;verticalAlign=middle;whiteSpace=wrap;rounded=0;" parent="1" vertex="1">
          <mxGeometry x="240" y="80" width="120" height="30" as="geometry" />
        </mxCell>
        <mxCell id="WaY7J1_5YlBNvb_G9uSw-4" value="" style="curved=1;endArrow=classic;html=1;rounded=0;entryX=0;entryY=0.25;entryDx=0;entryDy=0;" parent="1" target="WaY7J1_5YlBNvb_G9uSw-2" edge="1">
          <mxGeometry width="50" height="50" relative="1" as="geometry">
            <mxPoint x="170" y="270" as="sourcePoint" />
            <mxPoint x="220" y="220" as="targetPoint" />
            <Array as="points">
              <mxPoint x="170" y="240" />
              <mxPoint x="190" y="210" />
            </Array>
          </mxGeometry>
        </mxCell>
        <mxCell id="WaY7J1_5YlBNvb_G9uSw-5" value="1.调用代理对象" style="text;html=1;strokeColor=none;fillColor=none;align=center;verticalAlign=middle;whiteSpace=wrap;rounded=0;" parent="1" vertex="1">
          <mxGeometry x="140" y="210" width="60" height="30" as="geometry" />
        </mxCell>
        <mxCell id="WaY7J1_5YlBNvb_G9uSw-8" value="" style="rounded=0;whiteSpace=wrap;html=1;" parent="1" vertex="1">
          <mxGeometry x="260" y="130" width="540" height="60" as="geometry" />
        </mxCell>
        <mxCell id="WaY7J1_5YlBNvb_G9uSw-9" value="" style="rounded=0;whiteSpace=wrap;html=1;" parent="1" vertex="1">
          <mxGeometry x="260" y="230" width="540" height="60" as="geometry" />
        </mxCell>
        <mxCell id="WaY7J1_5YlBNvb_G9uSw-10" value="" style="rounded=0;whiteSpace=wrap;html=1;" parent="1" vertex="1">
          <mxGeometry x="260" y="340" width="540" height="140" as="geometry" />
        </mxCell>
        <mxCell id="60ih1bMFZ-7kQQ5-rzzn-2" value="其他切面" style="text;html=1;strokeColor=none;fillColor=none;align=center;verticalAlign=middle;whiteSpace=wrap;rounded=0;" vertex="1" parent="1">
          <mxGeometry x="490" y="245" width="60" height="30" as="geometry" />
        </mxCell>
        <mxCell id="60ih1bMFZ-7kQQ5-rzzn-3" value="3.执行前置增强" style="text;html=1;strokeColor=none;fillColor=none;align=center;verticalAlign=middle;whiteSpace=wrap;rounded=0;" vertex="1" parent="1">
          <mxGeometry x="270" y="245" width="90" height="30" as="geometry" />
        </mxCell>
        <mxCell id="60ih1bMFZ-7kQQ5-rzzn-4" value="6.执行后置增强" style="text;html=1;strokeColor=none;fillColor=none;align=center;verticalAlign=middle;whiteSpace=wrap;rounded=0;" vertex="1" parent="1">
          <mxGeometry x="660" y="245" width="140" height="30" as="geometry" />
        </mxCell>
        <mxCell id="60ih1bMFZ-7kQQ5-rzzn-6" value="7.提交/回滚事务" style="text;html=1;strokeColor=none;fillColor=none;align=center;verticalAlign=middle;whiteSpace=wrap;rounded=0;" vertex="1" parent="1">
          <mxGeometry x="660" y="145" width="140" height="30" as="geometry" />
        </mxCell>
        <mxCell id="60ih1bMFZ-7kQQ5-rzzn-7" value="事务切面" style="text;html=1;strokeColor=none;fillColor=none;align=center;verticalAlign=middle;whiteSpace=wrap;rounded=0;" vertex="1" parent="1">
          <mxGeometry x="490" y="145" width="60" height="30" as="geometry" />
        </mxCell>
        <mxCell id="60ih1bMFZ-7kQQ5-rzzn-8" value="2.开启事务" style="text;html=1;strokeColor=none;fillColor=none;align=center;verticalAlign=middle;whiteSpace=wrap;rounded=0;" vertex="1" parent="1">
          <mxGeometry x="270" y="145" width="60" height="30" as="geometry" />
        </mxCell>
        <mxCell id="60ih1bMFZ-7kQQ5-rzzn-9" value="4.调用目标对象的目标方法" style="text;html=1;strokeColor=none;fillColor=none;align=center;verticalAlign=middle;whiteSpace=wrap;rounded=0;" vertex="1" parent="1">
          <mxGeometry x="250" y="400" width="180" height="30" as="geometry" />
        </mxCell>
        <mxCell id="60ih1bMFZ-7kQQ5-rzzn-10" value="TargetObject目标对象目标方法" style="text;html=1;strokeColor=none;fillColor=none;align=center;verticalAlign=middle;whiteSpace=wrap;rounded=0;" vertex="1" parent="1">
          <mxGeometry x="465" y="400" width="130" height="30" as="geometry" />
        </mxCell>
        <mxCell id="60ih1bMFZ-7kQQ5-rzzn-11" value="5.目标方法&lt;br&gt;调用返回" style="text;html=1;strokeColor=none;fillColor=none;align=center;verticalAlign=middle;whiteSpace=wrap;rounded=0;" vertex="1" parent="1">
          <mxGeometry x="710" y="395" width="60" height="30" as="geometry" />
        </mxCell>
      </root>
    </mxGraphModel>
  </diagram>
</mxfile>
